<?xml version="1.0" standalone="no"?>
<!DOCTYPE svg PUBLIC "-//W3C//DTD SVG 20010904//EN"
 "http://www.w3.org/TR/2001/REC-SVG-20010904/DTD/svg10.dtd">
<svg version="1.0" xmlns="http://www.w3.org/2000/svg"
 width="562.000000pt" height="562.000000pt" viewBox="0 0 562.000000 562.000000"
 preserveAspectRatio="xMidYMid meet">

<g transform="translate(0.000000,562.000000) scale(0.100000,-0.100000)"
fill="#000000" stroke="none">
<path d="M2645 4678 c-22 -6 -49 -18 -60 -26 -13 -9 -14 -13 -4 -9 9 3 20 2
26 -1 21 -14 43 -73 49 -129 8 -73 -11 -102 -72 -110 -62 -8 -77 12 -72 101 2
55 9 79 27 105 37 52 -1 25 -47 -34 -49 -63 -62 -101 -62 -187 l0 -69 33 6
c17 4 67 2 111 -4 64 -8 83 -14 107 -37 16 -15 29 -31 29 -35 0 -9 -34 -16
-123 -24 -54 -5 -67 -10 -63 -21 4 -9 2 -12 -5 -8 -6 3 -17 -3 -25 -14 -14
-21 -46 -20 -41 0 5 25 -60 17 -128 -16 -124 -59 -173 -78 -186 -74 -19 6 27
45 78 64 30 12 43 22 43 36 0 30 18 57 53 79 58 37 -11 11 -92 -34 -272 -153
-404 -466 -321 -759 6 -21 18 -44 26 -52 9 -9 21 -57 29 -113 19 -124 19 -128
57 -248 18 -55 38 -104 45 -110 6 -5 26 -40 42 -77 41 -93 100 -167 160 -203
28 -17 51 -33 51 -38 0 -17 61 25 75 53 18 34 14 37 -20 14 -35 -23 -84 -11
-122 29 -34 35 -103 172 -103 204 0 11 -12 52 -26 92 -14 40 -24 74 -22 76 2
2 27 -42 56 -99 59 -117 126 -199 177 -216 19 -6 35 -16 35 -21 0 -12 38 7 68
34 31 29 27 38 -9 20 -63 -32 -132 13 -187 123 -11 22 -36 96 -55 163 l-35
123 34 77 c40 92 122 248 134 256 16 10 23 -43 11 -76 -13 -39 -13 -39 -2 -39
5 0 13 9 16 20 4 11 10 18 15 15 4 -3 15 6 24 20 12 18 26 25 49 25 30 1 31 2
13 15 -17 13 -16 17 29 74 27 34 51 61 55 61 3 0 19 -29 35 -65 15 -35 31 -63
34 -60 4 2 20 30 36 62 16 32 58 104 93 161 35 57 67 114 72 127 8 22 14 17
112 -83 153 -157 196 -209 208 -250 36 -127 55 -417 32 -497 -21 -74 -76 -109
-134 -87 -37 14 -35 8 6 -17 51 -32 79 -27 118 18 44 51 67 125 78 251 4 56
11 104 14 108 3 3 6 -4 6 -16 0 -11 4 -23 9 -27 6 -3 13 -26 17 -51 8 -59 32
-136 33 -108 1 12 7 27 15 33 20 17 29 -16 29 -101 0 -79 -35 -163 -69 -164
-10 0 -34 -8 -53 -18 -27 -14 -39 -16 -57 -7 -34 15 -30 4 6 -14 37 -19 89
-19 117 0 12 8 33 45 47 83 23 59 26 82 25 182 0 119 -4 146 -38 294 -35 149
-63 246 -71 246 -5 0 -11 -8 -14 -17 -3 -10 -3 26 0 80 l4 97 -30 0 c-16 0
-30 4 -30 10 0 5 -3 9 -7 8 -5 -1 -22 1 -39 4 -28 6 -32 12 -44 65 -11 49 -20
65 -64 106 -28 26 -54 47 -59 47 -4 0 -6 4 -2 9 3 5 1 12 -4 16 -6 3 -8 12 -4
21 4 10 16 13 42 10 67 -8 89 -23 117 -78 15 -29 30 -54 35 -56 5 -2 9 -9 9
-15 1 -17 37 -63 45 -56 16 16 -67 156 -111 186 -14 10 -43 35 -65 57 l-40 38
22 44 c53 111 28 262 -58 346 -26 26 -65 54 -87 63 -49 21 -159 27 -211 13z
m-27 -560 c2 -9 -16 -35 -38 -58 -33 -34 -44 -40 -51 -29 -7 11 -9 10 -9 -4 0
-10 -5 -15 -10 -12 -20 12 -39 -17 -51 -76 -13 -64 -38 -92 -92 -103 -15 -3
-39 -8 -53 -11 -29 -6 -29 -2 -7 -154 4 -31 2 -42 -6 -40 -7 3 -37 -20 -68
-50 -42 -41 -57 -50 -64 -40 -14 22 -10 180 6 224 8 22 15 46 15 53 0 20 32
50 61 57 19 5 32 20 49 58 26 58 60 111 67 103 2 -2 -7 -21 -20 -43 -30 -46
-42 -83 -28 -83 6 0 11 5 11 11 0 5 5 7 10 4 6 -3 10 1 10 9 0 9 5 16 10 16 6
0 10 9 10 20 0 11 4 20 9 20 5 0 21 25 37 55 27 52 44 65 114 89 32 11 85 1
88 -16z m-349 -37 c8 -5 11 -16 6 -30 -3 -11 -7 -34 -7 -51 -1 -16 -5 -27 -10
-24 -4 3 -8 1 -8 -4 0 -6 -11 -13 -25 -16 -14 -4 -25 -10 -25 -15 0 -5 -14
-14 -30 -21 -34 -14 -38 -25 -42 -132 -3 -70 -6 -79 -33 -107 -17 -17 -38 -31
-48 -31 -10 0 -31 -7 -47 -15 -16 -8 -31 -11 -34 -6 -4 5 -9 43 -12 84 -6 60
-3 88 15 145 12 39 26 74 33 78 8 5 9 1 4 -12 -23 -57 -45 -169 -36 -178 16
-16 50 29 55 72 2 20 8 48 13 62 5 14 10 30 11 35 3 22 24 81 34 93 6 8 29 23
51 34 23 11 45 27 49 34 9 15 64 19 86 5z m369 -135 c6 -47 -5 -72 -60 -131
-43 -47 -110 -95 -133 -95 -8 0 0 86 10 115 26 77 67 128 109 136 55 12 71 7
74 -25z m381 11 c2 -5 12 -18 22 -28 11 -11 19 -25 19 -32 0 -7 4 -17 8 -22
11 -13 32 -82 35 -115 5 -56 -85 -8 -148 78 -65 89 -57 147 19 135 22 -3 43
-10 45 -16z m-328 -160 c-37 -76 -91 -110 -91 -57 0 23 102 130 108 112 2 -7
-6 -32 -17 -55z m-681 -327 c18 -50 30 -93 28 -96 -8 -7 -59 112 -65 151 -9
58 3 40 37 -55z"/>
<path d="M2743 3633 c-29 -11 -10 -20 32 -15 31 3 52 0 69 -12 29 -19 36 -20
36 -6 0 26 -97 50 -137 33z"/>
<path d="M2763 3544 c-15 -23 -15 -29 -2 -52 31 -54 74 -54 93 1 7 19 5 32 -8
51 -22 35 -60 34 -83 0z"/>
<path d="M2386 3465 c-35 -35 -4 -105 47 -105 34 0 53 50 34 89 -15 31 -57 40
-81 16z"/>
<path d="M2736 3331 c-60 -31 -80 -36 -153 -40 -57 -2 -83 -7 -80 -15 2 -7 33
-11 88 -11 88 1 140 18 204 70 46 36 15 34 -59 -4z"/>
<path d="M1346 2176 l17 -27 -53 -50 c-57 -54 -84 -60 -135 -33 -16 9 -56 17
-89 18 -62 1 -86 -15 -86 -58 0 -19 0 -19 21 0 31 28 88 24 140 -10 56 -37
162 -48 223 -22 21 9 40 16 42 16 2 0 4 -33 4 -74 l0 -73 -64 -7 c-35 -3 -83
-13 -107 -20 -24 -8 -56 -17 -71 -20 -19 -4 -30 -15 -34 -32 -9 -33 32 -300
57 -371 37 -108 66 -123 235 -123 179 0 203 15 247 155 38 119 59 343 35 362
-18 13 -142 42 -215 49 l-63 7 -1 106 0 106 -47 59 c-50 62 -89 91 -56 42z
m338 -422 c19 -19 19 -14 1 -139 -23 -166 -31 -175 -155 -175 -127 0 -166 41
-177 183 -5 67 -4 75 18 100 19 23 36 29 89 36 115 15 207 13 224 -5z"/>
<path d="M1522 2132 c-39 -39 -62 -88 -62 -132 0 -45 28 -71 100 -90 70 -19
144 -7 233 40 88 45 118 49 165 20 18 -11 35 -20 38 -20 10 0 -5 65 -23 101
-14 28 -17 30 -23 14 -6 -17 -19 -19 -126 -21 -135 -3 -212 13 -257 52 -23 20
-26 27 -17 44 15 28 5 25 -28 -8z"/>
<path d="M2121 1749 c-43 -17 -83 -52 -112 -97 -24 -38 -29 -57 -29 -109 0
-110 35 -159 131 -187 42 -12 58 -21 62 -37 5 -20 3 -21 -51 -14 -79 11 -95 9
-151 -19 -56 -29 -111 -87 -111 -119 0 -35 35 -83 87 -121 63 -46 88 -49 180
-25 126 34 123 34 123 12 0 -11 9 -28 20 -38 19 -17 27 -17 108 -6 48 7 155
25 237 41 321 61 287 61 470 -4 107 -38 147 -44 166 -23 10 10 28 9 98 -5 121
-24 149 -23 203 11 85 54 110 120 66 176 -18 24 -19 28 -6 36 20 11 57 98 64
151 9 65 -26 147 -83 198 -25 22 -55 41 -67 42 -39 2 -69 -3 -90 -18 -17 -12
-101 -14 -513 -14 -480 0 -494 1 -513 20 -15 15 -20 33 -20 70 0 28 -3 50 -7
51 -5 0 -34 3 -66 5 -32 2 -77 11 -100 19 -48 17 -63 17 -96 4z m75 -492 c6
-6 37 -177 33 -181 -2 -3 -27 -8 -55 -11 -72 -10 -84 5 -84 100 0 103 3 109
58 101 25 -3 46 -7 48 -9z m1229 -131 c5 -30 2 -54 -7 -73 -13 -26 -17 -28
-72 -26 -32 1 -61 5 -64 8 -3 3 8 31 24 63 24 44 37 58 60 63 51 11 53 10 59
-35z"/>
</g>
</svg>
