<?xml version="1.0" standalone="no"?>
<!DOCTYPE svg PUBLIC "-//W3C//DTD SVG 20010904//EN"
 "http://www.w3.org/TR/2001/REC-SVG-20010904/DTD/svg10.dtd">
<svg version="1.0" xmlns="http://www.w3.org/2000/svg"
 width="546.000000pt" height="560.000000pt" viewBox="0 0 546.000000 560.000000"
 preserveAspectRatio="xMidYMid meet">

<g transform="translate(0.000000,560.000000) scale(0.100000,-0.100000)"
fill="#000000" stroke="none">
<path d="M2544 4909 c-405 -31 -842 -204 -1153 -456 -73 -59 -208 -182 -241
-220 -76 -86 -96 -110 -140 -168 -241 -319 -374 -652 -430 -1085 -12 -85 -11
-344 0 -440 19 -163 78 -427 110 -495 5 -11 23 -56 41 -100 33 -86 110 -241
143 -290 12 -16 22 -32 24 -34 1 -3 15 8 30 22 40 39 86 35 103 -10 7 -18 14
-22 32 -18 29 8 77 -28 77 -58 0 -18 6 -22 36 -23 48 -1 67 -26 61 -80 -4 -38
-2 -41 27 -50 17 -5 35 -19 41 -32 6 -13 32 -35 59 -49 47 -24 50 -24 59 -6
19 33 136 141 275 253 113 91 143 110 171 110 45 0 113 35 152 78 21 23 37 32
50 29 10 -3 21 -1 24 3 3 5 22 14 43 21 20 6 47 21 59 32 18 16 37 20 98 21
70 1 76 3 82 24 3 13 4 24 2 26 -2 2 -32 22 -67 45 -135 91 -240 216 -328 392
-51 101 -54 122 -34 243 15 87 21 94 225 263 240 198 248 204 252 199 3 -2 2
-34 -2 -70 -7 -61 -9 -66 -31 -66 -63 0 -144 -56 -144 -99 0 -25 1 -25 33 12
40 48 88 61 158 43 53 -14 57 -12 34 14 -12 14 -13 19 -3 27 21 17 313 163
326 163 8 0 11 -26 9 -92 -1 -51 1 -105 6 -120 l7 -27 23 22 c61 58 227 183
347 261 41 27 98 71 126 98 29 28 54 46 57 41 2 -4 8 -24 12 -43 4 -19 41
-120 82 -224 41 -105 88 -240 105 -300 l30 -111 -26 -115 c-15 -63 -47 -176
-72 -250 -44 -135 -45 -136 -102 -184 -74 -61 -181 -130 -238 -152 -30 -11
-46 -24 -48 -38 -3 -12 -8 -40 -13 -64 l-8 -43 -32 31 c-18 18 -33 30 -33 26
0 -12 41 -92 58 -112 24 -29 83 -59 91 -46 3 5 32 21 63 36 70 33 160 113 204
182 18 28 60 104 94 170 98 188 122 193 50 11 -69 -176 -165 -311 -269 -378
l-44 -28 31 -27 c38 -34 101 -57 118 -43 12 10 76 112 119 191 19 35 56 78 88
105 23 19 27 -3 11 -67 -33 -128 -127 -265 -208 -301 -43 -19 -72 -10 -62 18
4 10 1 11 -14 3 -43 -23 -157 4 -174 42 -3 7 -3 2 0 -12 9 -39 31 -68 76 -100
57 -42 122 -42 189 0 l49 30 23 -38 c51 -81 102 -168 134 -231 19 -36 43 -82
54 -101 10 -19 23 -47 28 -62 8 -20 15 -25 31 -21 13 4 32 -2 50 -15 26 -19
31 -20 55 -8 26 14 61 11 70 -5 7 -10 71 30 139 86 85 69 310 299 354 361 99
141 171 253 196 309 15 33 33 66 40 75 7 8 30 60 51 115 21 55 41 105 46 110
10 14 52 180 86 345 25 126 27 151 27 375 0 233 -1 244 -32 390 -45 204 -71
306 -86 330 -7 11 -23 49 -36 85 -27 75 -122 262 -171 337 -19 28 -42 64 -51
80 -16 26 -37 52 -121 157 -45 56 -234 243 -298 294 -434 351 -974 515 -1545
471z m992 -473 c38 -28 16 -244 -30 -294 -46 -52 -112 -65 -179 -37 -57 24
-63 80 -19 178 60 131 163 200 228 153z m-426 -370 c25 -8 74 -28 110 -46 166
-80 210 -119 210 -187 0 -41 -2 -43 -28 -43 -16 0 -42 6 -58 14 -16 8 -72 24
-124 36 -52 12 -103 26 -112 31 -21 11 -59 12 -41 1 8 -5 4 -16 -13 -35 -13
-16 -24 -22 -24 -16 0 7 -12 26 -27 41 l-27 28 34 -5 c19 -3 6 3 -30 14 -56
17 -94 20 -268 19 -135 0 -207 3 -214 10 -8 8 -7 13 3 16 41 15 112 26 172 26
63 0 67 1 67 23 0 15 13 30 44 50 73 46 218 56 326 23z m-445 -212 c23 -21 26
-29 17 -43 -6 -9 -21 -35 -32 -58 -12 -24 -28 -43 -35 -43 -8 0 -20 -8 -27
-19 -10 -14 -32 -20 -96 -26 -90 -8 -97 -12 -127 -71 -11 -21 -27 -44 -36 -51
-9 -7 -26 -38 -37 -70 -27 -72 -28 -74 -76 -102 -33 -18 -53 -22 -110 -21 -39
1 -73 1 -76 0 -3 -1 -16 -3 -30 -5 -39 -4 -50 10 -38 51 5 19 7 41 5 47 -6 18
37 111 88 187 49 74 179 197 235 224 19 9 26 11 15 4 -20 -13 -159 -151 -202
-202 -32 -36 -70 -97 -78 -123 -12 -41 46 -28 104 25 14 12 21 22 16 22 -5 0
1 7 13 16 12 8 22 19 22 25 0 5 8 18 18 28 39 44 68 90 64 104 -1 4 3 7 9 7 6
0 28 17 48 38 45 46 96 62 216 69 49 3 92 7 94 9 6 6 6 6 36 -22z m528 -125
c32 -42 35 -55 18 -76 -10 -11 -32 -28 -49 -37 -18 -9 -32 -21 -32 -26 0 -15
-117 -12 -124 3 -5 10 -7 10 -12 0 -3 -7 -14 -13 -25 -13 -22 0 -99 -68 -99
-87 0 -7 -5 -13 -10 -13 -6 0 -14 -8 -17 -17 -12 -32 -99 -84 -111 -67 -4 5
-16 10 -27 12 -25 3 -129 25 -133 28 -2 1 4 18 12 38 19 46 14 46 -15 -1 -34
-55 -50 -94 -43 -105 3 -5 -3 -30 -14 -56 -11 -26 -23 -67 -27 -92 -4 -25 -16
-61 -26 -80 l-19 -35 2 30 c2 17 -1 30 -7 30 -5 0 -40 -15 -78 -32 -37 -18
-88 -35 -113 -39 l-47 -7 8 49 c8 60 42 142 80 199 45 67 143 177 172 193 8 5
46 7 84 4 49 -3 69 -1 69 7 0 32 123 144 208 190 49 26 29 2 -40 -50 -78 -57
-128 -105 -128 -121 0 -10 21 -8 80 6 29 7 103 80 92 91 -4 5 -1 5 5 1 7 -4
20 2 30 14 10 11 23 20 31 20 7 0 16 10 21 22 12 33 93 46 198 33 45 -6 84
-13 86 -16z m-680 -166 c-7 -2 -19 -2 -25 0 -7 3 -2 5 12 5 14 0 19 -2 13 -5z
m570 -88 c106 -16 90 -110 -32 -191 -82 -54 -196 -94 -278 -97 -72 -3 -73 0
-26 83 54 95 245 247 277 221 6 -5 33 -12 59 -16z m712 -36 c86 -67 105 -102
105 -193 0 -25 5 -46 10 -46 6 0 10 -7 10 -15 0 -8 -4 -15 -10 -15 -15 0 -12
-50 3 -51 10 0 10 -2 0 -6 -16 -6 -17 -33 -2 -33 8 0 8 -4 1 -12 -11 -14 10
-43 22 -31 3 4 6 -1 6 -10 0 -9 4 -17 10 -17 8 0 14 23 24 95 2 17 2 -6 -1
-49 -4 -79 -27 -171 -45 -182 -5 -3 -20 3 -32 15 -12 12 -33 21 -45 21 -14 0
-25 7 -28 20 -3 11 -12 20 -19 20 -8 0 -14 6 -14 14 0 8 -5 16 -12 18 -14 5
-12 120 3 129 19 11 8 131 -14 156 -11 12 -25 20 -30 16 -6 -3 -7 -1 -3 6 4 7
0 29 -10 49 -19 39 -20 108 -2 130 10 12 29 5 73 -29z m171 -231 c4 -35 3 -50
-4 -43 -5 6 -12 39 -15 75 -6 75 8 51 19 -32z m-2041 -55 c-9 -155 -14 -203
-24 -220 -15 -28 -24 60 -16 170 8 107 17 147 35 147 7 0 9 -33 5 -97z m1731
64 c53 -37 59 -51 69 -167 5 -59 -9 -184 -26 -237 -17 -52 -36 -43 -94 45 -56
84 -96 262 -75 327 24 74 54 81 126 32z m-486 -26 c-54 -78 -220 -165 -220
-117 0 35 24 75 53 90 58 29 132 55 160 55 l28 1 -21 -29z m-1397 -143 c-3
-13 -20 -76 -39 -141 -19 -64 -40 -152 -47 -194 -7 -42 -18 -78 -24 -80 -16
-6 -49 53 -68 121 -16 55 -16 62 0 123 20 75 80 157 128 178 46 20 56 18 50
-7z m2146 -280 c0 -7 -6 -29 -13 -48 -12 -32 -10 -40 18 -100 57 -123 31 -265
-65 -340 -39 -32 -39 -32 -39 -8 0 13 6 73 14 133 23 175 25 227 9 213 -8 -6
-21 -25 -29 -41 -9 -16 -18 -27 -21 -24 -4 5 7 30 80 175 25 48 48 68 46 40z
m-2100 -330 c4 -165 21 -317 42 -380 24 -68 73 -151 108 -182 46 -42 6 -50
-51 -11 -53 36 -103 144 -124 265 -22 131 -11 412 16 395 4 -2 8 -42 9 -87z
m-146 -273 c8 -220 33 -305 127 -423 32 -41 37 -52 23 -52 -58 0 -127 88 -165
210 -20 66 -23 95 -23 245 0 172 9 251 25 210 4 -11 10 -96 13 -190z"/>
<path d="M2954 2795 c-18 -13 -15 -14 31 -15 64 0 106 -25 141 -85 31 -53 54
-49 31 6 -21 50 -59 86 -103 98 -53 15 -77 14 -100 -4z"/>
<path d="M2335 2777 c-34 -29 -45 -96 -21 -132 56 -85 169 -23 153 83 -11 68
-80 94 -132 49z m8 -22 c-3 -9 -8 -14 -10 -11 -3 3 -2 9 2 15 9 16 15 13 8 -4z"/>
<path d="M2949 2661 c-43 -44 -39 -129 7 -150 62 -28 121 6 131 75 4 33 1 45
-22 72 -35 42 -75 43 -116 3z"/>
<path d="M2440 2446 c0 -19 54 -60 116 -88 38 -17 67 -21 129 -21 86 1 165 24
165 49 0 17 0 17 -68 -2 -78 -23 -163 -15 -245 24 -36 17 -68 36 -72 42 -9 15
-25 12 -25 -4z"/>
<path d="M1232 1199 c2 -6 15 -18 29 -26 24 -14 28 -14 53 2 20 14 24 20 14
26 -20 13 -100 11 -96 -2z"/>
<path d="M1892 937 c-47 -84 -56 -90 -98 -70 -33 16 -35 16 -55 -3 l-20 -21
75 -31 c67 -29 96 -37 96 -29 0 1 9 47 19 102 11 55 18 101 17 103 -2 1 -17
-21 -34 -51z"/>
</g>
</svg>
